<?xml version="1.0" encoding="UTF-8"?>
<svg xmlns="http://www.w3.org/2000/svg" width="171" height="21" viewBox="0 0 171 21" fill="none">
  <path d="M27.975 2.5L22.25 20H17.9L14.05 8.15L10.075 20H5.75L0 2.5H4.2L8.15 14.8L12.275 2.5H16.025L20.025 14.9L24.1 2.5H27.975Z" fill="white"></path>
  <path d="M37.36 20.2C35.9433 20.2 34.6683 19.9083 33.535 19.325C32.4183 18.725 31.5433 17.9 30.91 16.85C30.2766 15.8 29.96 14.6083 29.96 13.275C29.96 11.9417 30.2766 10.75 30.91 9.7C31.5433 8.65 32.4183 7.83333 33.535 7.25C34.6683 6.65 35.9433 6.35 37.36 6.35C38.7766 6.35 40.0433 6.65 41.16 7.25C42.2766 7.83333 43.1516 8.65 43.785 9.7C44.4183 10.75 44.735 11.9417 44.735 13.275C44.735 14.6083 44.4183 15.8 43.785 16.85C43.1516 17.9 42.2766 18.725 41.16 19.325C40.0433 19.9083 38.7766 20.2 37.36 20.2ZM37.36 17C38.36 17 39.1766 16.6667 39.81 16C40.46 15.3167 40.785 14.4083 40.785 13.275C40.785 12.1417 40.46 11.2417 39.81 10.575C39.1766 9.89167 38.36 9.55 37.36 9.55C36.36 9.55 35.535 9.89167 34.885 10.575C34.235 11.2417 33.91 12.1417 33.91 13.275C33.91 14.4083 34.235 15.3167 34.885 16C35.535 16.6667 36.36 17 37.36 17Z" fill="white"></path>
  <path d="M55.7418 20.2C54.3251 20.2 53.0501 19.9083 51.9168 19.325C50.8001 18.725 49.9251 17.9 49.2918 16.85C48.6585 15.8 48.3418 14.6083 48.3418 13.275C48.3418 11.9417 48.6585 10.75 49.2918 9.7C49.9251 8.65 50.8001 7.83333 51.9168 7.25C53.0501 6.65 54.3251 6.35 55.7418 6.35C57.1585 6.35 58.4251 6.65 59.5418 7.25C60.6585 7.83333 61.5335 8.65 62.1668 9.7C62.8001 10.75 63.1168 11.9417 63.1168 13.275C63.1168 14.6083 62.8001 15.8 62.1668 16.85C61.5335 17.9 60.6585 18.725 59.5418 19.325C58.4251 19.9083 57.1585 20.2 55.7418 20.2ZM55.7418 17C56.7418 17 57.5585 16.6667 58.1918 16C58.8418 15.3167 59.1668 14.4083 59.1668 13.275C59.1668 12.1417 58.8418 11.2417 58.1918 10.575C57.5585 9.89167 56.7418 9.55 55.7418 9.55C54.7418 9.55 53.9168 9.89167 53.2668 10.575C52.6168 11.2417 52.2918 12.1417 52.2918 13.275C52.2918 14.4083 52.6168 15.3167 53.2668 16C53.9168 16.6667 54.7418 17 55.7418 17Z" fill="white"></path>
  <path d="M73.7486 20.3C72.3653 20.3 71.0236 20.1167 69.7236 19.75C68.4403 19.3667 67.407 18.875 66.6236 18.275L67.9986 15.225C68.7486 15.775 69.6403 16.2167 70.6736 16.55C71.707 16.8833 72.7403 17.05 73.7736 17.05C74.9236 17.05 75.7736 16.8833 76.3236 16.55C76.8736 16.2 77.1486 15.7417 77.1486 15.175C77.1486 14.7583 76.982 14.4167 76.6486 14.15C76.332 13.8667 75.9153 13.6417 75.3986 13.475C74.8986 13.3083 74.2153 13.125 73.3486 12.925C72.0153 12.6083 70.9236 12.2917 70.0736 11.975C69.2236 11.6583 68.4903 11.15 67.8736 10.45C67.2736 9.75 66.9736 8.81667 66.9736 7.65C66.9736 6.63333 67.2486 5.71667 67.7986 4.9C68.3486 4.06667 69.1736 3.40833 70.2736 2.925C71.3903 2.44167 72.7486 2.2 74.3486 2.2C75.4653 2.2 76.557 2.33333 77.6236 2.6C78.6903 2.86667 79.6236 3.25 80.4236 3.75L79.1736 6.825C77.557 5.90833 75.9403 5.45 74.3236 5.45C73.1903 5.45 72.3486 5.63333 71.7986 6C71.2653 6.36667 70.9986 6.85 70.9986 7.45C70.9986 8.05 71.307 8.5 71.9236 8.8C72.557 9.08333 73.5153 9.36667 74.7986 9.65C76.132 9.96667 77.2236 10.2833 78.0736 10.6C78.9236 10.9167 79.6486 11.4167 80.2486 12.1C80.8653 12.7833 81.1736 13.7083 81.1736 14.875C81.1736 15.875 80.8903 16.7917 80.3236 17.625C79.7736 18.4417 78.9403 19.0917 77.8236 19.575C76.707 20.0583 75.3486 20.3 73.7486 20.3Z" fill="white"></path>
  <path d="M94.341 19.35C93.9577 19.6333 93.4827 19.85 92.916 20C92.366 20.1333 91.7827 20.2 91.166 20.2C89.566 20.2 88.3243 19.7917 87.441 18.975C86.5743 18.1583 86.141 16.9583 86.141 15.375V9.85H84.066V6.85H86.141V3.575H90.041V6.85H93.391V9.85H90.041V15.325C90.041 15.8917 90.1827 16.3333 90.466 16.65C90.766 16.95 91.1827 17.1 91.716 17.1C92.3327 17.1 92.8577 16.9333 93.291 16.6L94.341 19.35Z" fill="white"></path>
  <path d="M102.255 8.325C102.722 7.675 103.347 7.18333 104.13 6.85C104.93 6.51667 105.847 6.35 106.88 6.35V9.95C106.447 9.91667 106.155 9.9 106.005 9.9C104.889 9.9 104.014 10.2167 103.38 10.85C102.747 11.4667 102.43 12.4 102.43 13.65V20H98.5303V6.55H102.255V8.325Z" fill="white"></path>
  <path d="M117.477 20.2C116.06 20.2 114.785 19.9083 113.652 19.325C112.535 18.725 111.66 17.9 111.027 16.85C110.394 15.8 110.077 14.6083 110.077 13.275C110.077 11.9417 110.394 10.75 111.027 9.7C111.66 8.65 112.535 7.83333 113.652 7.25C114.785 6.65 116.06 6.35 117.477 6.35C118.894 6.35 120.16 6.65 121.277 7.25C122.394 7.83333 123.269 8.65 123.902 9.7C124.535 10.75 124.852 11.9417 124.852 13.275C124.852 14.6083 124.535 15.8 123.902 16.85C123.269 17.9 122.394 18.725 121.277 19.325C120.16 19.9083 118.894 20.2 117.477 20.2ZM117.477 17C118.477 17 119.294 16.6667 119.927 16C120.577 15.3167 120.902 14.4083 120.902 13.275C120.902 12.1417 120.577 11.2417 119.927 10.575C119.294 9.89167 118.477 9.55 117.477 9.55C116.477 9.55 115.652 9.89167 115.002 10.575C114.352 11.2417 114.027 12.1417 114.027 13.275C114.027 14.4083 114.352 15.3167 115.002 16C115.652 16.6667 116.477 17 117.477 17Z" fill="white"></path>
  <path d="M129.459 6.55H133.359V20H129.459V6.55ZM131.409 4.675C130.692 4.675 130.109 4.46667 129.659 4.05C129.209 3.63333 128.984 3.11667 128.984 2.5C128.984 1.88333 129.209 1.36667 129.659 0.95C130.109 0.533333 130.692 0.324999 131.409 0.324999C132.126 0.324999 132.709 0.524999 133.159 0.925C133.609 1.325 133.834 1.825 133.834 2.425C133.834 3.075 133.609 3.61667 133.159 4.05C132.709 4.46667 132.126 4.675 131.409 4.675Z" fill="white"></path>
  <path d="M152.679 1.45V20H148.954V18.45C147.987 19.6167 146.587 20.2 144.754 20.2C143.487 20.2 142.337 19.9167 141.304 19.35C140.287 18.7833 139.487 17.975 138.904 16.925C138.32 15.875 138.029 14.6583 138.029 13.275C138.029 11.8917 138.32 10.675 138.904 9.625C139.487 8.575 140.287 7.76667 141.304 7.2C142.337 6.63333 143.487 6.35 144.754 6.35C146.47 6.35 147.812 6.89167 148.779 7.975V1.45H152.679ZM145.429 17C146.412 17 147.229 16.6667 147.879 16C148.529 15.3167 148.854 14.4083 148.854 13.275C148.854 12.1417 148.529 11.2417 147.879 10.575C147.229 9.89167 146.412 9.55 145.429 9.55C144.429 9.55 143.604 9.89167 142.954 10.575C142.304 11.2417 141.979 12.1417 141.979 13.275C141.979 14.4083 142.304 15.3167 142.954 16C143.604 16.6667 144.429 17 145.429 17Z" fill="white"></path>
  <path d="M170.538 16.7V20H157.313V17.375L164.063 11C164.78 10.3167 165.263 9.73333 165.513 9.25C165.763 8.75 165.888 8.25833 165.888 7.775C165.888 7.075 165.646 6.54167 165.163 6.175C164.696 5.79167 164.005 5.6 163.088 5.6C162.321 5.6 161.63 5.75 161.013 6.05C160.396 6.33333 159.88 6.76667 159.463 7.35L156.513 5.45C157.196 4.43333 158.138 3.64167 159.338 3.075C160.538 2.49167 161.913 2.2 163.463 2.2C164.763 2.2 165.896 2.41667 166.863 2.85C167.846 3.26667 168.605 3.86667 169.138 4.65C169.688 5.41667 169.963 6.325 169.963 7.375C169.963 8.325 169.763 9.21667 169.363 10.05C168.963 10.8833 168.188 11.8333 167.038 12.9L163.013 16.7H170.538Z" fill="white"></path>
</svg>
