<?xml version="1.0" encoding="UTF-8"?>
<svg xmlns="http://www.w3.org/2000/svg" width="154" height="34" viewBox="0 0 154 34" fill="none">
  <path d="M39.256 12.392L35.592 23.592H32.808L30.344 16.008L27.8 23.592H25.032L21.352 12.392H24.04L26.568 20.264L29.208 12.392H31.608L34.168 20.328L36.776 12.392H39.256Z" fill="#333333"></path>
  <path d="M45.2624 23.72C44.3557 23.72 43.5397 23.5333 42.8144 23.16C42.0997 22.776 41.5397 22.248 41.1344 21.576C40.729 20.904 40.5264 20.1413 40.5264 19.288C40.5264 18.4347 40.729 17.672 41.1344 17C41.5397 16.328 42.0997 15.8053 42.8144 15.432C43.5397 15.048 44.3557 14.856 45.2624 14.856C46.169 14.856 46.9797 15.048 47.6944 15.432C48.409 15.8053 48.969 16.328 49.3744 17C49.7797 17.672 49.9824 18.4347 49.9824 19.288C49.9824 20.1413 49.7797 20.904 49.3744 21.576C48.969 22.248 48.409 22.776 47.6944 23.16C46.9797 23.5333 46.169 23.72 45.2624 23.72ZM45.2624 21.672C45.9024 21.672 46.425 21.4587 46.8304 21.032C47.2464 20.5947 47.4544 20.0133 47.4544 19.288C47.4544 18.5627 47.2464 17.9867 46.8304 17.56C46.425 17.1227 45.9024 16.904 45.2624 16.904C44.6224 16.904 44.0944 17.1227 43.6784 17.56C43.2624 17.9867 43.0544 18.5627 43.0544 19.288C43.0544 20.0133 43.2624 20.5947 43.6784 21.032C44.0944 21.4587 44.6224 21.672 45.2624 21.672Z" fill="#333333"></path>
  <path d="M57.0268 23.72C56.1201 23.72 55.3041 23.5333 54.5788 23.16C53.8641 22.776 53.3041 22.248 52.8988 21.576C52.4934 20.904 52.2908 20.1413 52.2908 19.288C52.2908 18.4347 52.4934 17.672 52.8988 17C53.3041 16.328 53.8641 15.8053 54.5788 15.432C55.3041 15.048 56.1201 14.856 57.0268 14.856C57.9334 14.856 58.7441 15.048 59.4588 15.432C60.1734 15.8053 60.7334 16.328 61.1388 17C61.5441 17.672 61.7468 18.4347 61.7468 19.288C61.7468 20.1413 61.5441 20.904 61.1388 21.576C60.7334 22.248 60.1734 22.776 59.4588 23.16C58.7441 23.5333 57.9334 23.72 57.0268 23.72ZM57.0268 21.672C57.6668 21.672 58.1894 21.4587 58.5948 21.032C59.0108 20.5947 59.2188 20.0133 59.2188 19.288C59.2188 18.5627 59.0108 17.9867 58.5948 17.56C58.1894 17.1227 57.6668 16.904 57.0268 16.904C56.3868 16.904 55.8588 17.1227 55.4428 17.56C55.0268 17.9867 54.8188 18.5627 54.8188 19.288C54.8188 20.0133 55.0268 20.5947 55.4428 21.032C55.8588 21.4587 56.3868 21.672 57.0268 21.672Z" fill="#333333"></path>
  <path d="M68.5511 23.784C67.6658 23.784 66.8071 23.6667 65.9751 23.432C65.1538 23.1867 64.4925 22.872 63.9911 22.488L64.8711 20.536C65.3511 20.888 65.9218 21.1707 66.5831 21.384C67.2445 21.5973 67.9058 21.704 68.5671 21.704C69.3031 21.704 69.8471 21.5973 70.1991 21.384C70.5511 21.16 70.7271 20.8667 70.7271 20.504C70.7271 20.2373 70.6205 20.0187 70.4071 19.848C70.2045 19.6667 69.9378 19.5227 69.6071 19.416C69.2871 19.3093 68.8498 19.192 68.2951 19.064C67.4418 18.8613 66.7431 18.6587 66.1991 18.456C65.6551 18.2533 65.1858 17.928 64.7911 17.48C64.4071 17.032 64.2151 16.4347 64.2151 15.688C64.2151 15.0373 64.3911 14.4507 64.7431 13.928C65.0951 13.3947 65.6231 12.9733 66.3271 12.664C67.0418 12.3547 67.9111 12.2 68.9351 12.2C69.6498 12.2 70.3485 12.2853 71.0311 12.456C71.7138 12.6267 72.3111 12.872 72.8231 13.192L72.0231 15.16C70.9885 14.5733 69.9538 14.28 68.9191 14.28C68.1938 14.28 67.6551 14.3973 67.3031 14.632C66.9618 14.8667 66.7911 15.176 66.7911 15.56C66.7911 15.944 66.9885 16.232 67.3831 16.424C67.7885 16.6053 68.4018 16.7867 69.2231 16.968C70.0765 17.1707 70.7751 17.3733 71.3191 17.576C71.8631 17.7787 72.3271 18.0987 72.7111 18.536C73.1058 18.9733 73.3031 19.5653 73.3031 20.312C73.3031 20.952 73.1218 21.5387 72.7591 22.072C72.4071 22.5947 71.8738 23.0107 71.1591 23.32C70.4445 23.6293 69.5751 23.784 68.5511 23.784Z" fill="#333333"></path>
  <path d="M81.7303 23.176C81.4849 23.3573 81.1809 23.496 80.8183 23.592C80.4663 23.6773 80.0929 23.72 79.6983 23.72C78.6743 23.72 77.8796 23.4587 77.3143 22.936C76.7596 22.4133 76.4823 21.6453 76.4823 20.632V17.096H75.1543V15.176H76.4823V13.08H78.9783V15.176H81.1223V17.096H78.9783V20.6C78.9783 20.9627 79.0689 21.2453 79.2503 21.448C79.4423 21.64 79.7089 21.736 80.0503 21.736C80.4449 21.736 80.7809 21.6293 81.0583 21.416L81.7303 23.176Z" fill="#333333"></path>
  <path d="M86.7954 16.12C87.0941 15.704 87.494 15.3893 87.9954 15.176C88.5074 14.9627 89.0941 14.856 89.7554 14.856V17.16C89.4781 17.1387 89.2914 17.128 89.1954 17.128C88.4807 17.128 87.9207 17.3307 87.5154 17.736C87.11 18.1307 86.9074 18.728 86.9074 19.528V23.592H84.4114V14.984H86.7954V16.12Z" fill="#333333"></path>
  <path d="M96.5374 23.72C95.6307 23.72 94.8147 23.5333 94.0894 23.16C93.3747 22.776 92.8147 22.248 92.4094 21.576C92.0041 20.904 91.8014 20.1413 91.8014 19.288C91.8014 18.4347 92.0041 17.672 92.4094 17C92.8147 16.328 93.3747 15.8053 94.0894 15.432C94.8147 15.048 95.6307 14.856 96.5374 14.856C97.4441 14.856 98.2547 15.048 98.9694 15.432C99.6841 15.8053 100.244 16.328 100.649 17C101.055 17.672 101.257 18.4347 101.257 19.288C101.257 20.1413 101.055 20.904 100.649 21.576C100.244 22.248 99.6841 22.776 98.9694 23.16C98.2547 23.5333 97.4441 23.72 96.5374 23.72ZM96.5374 21.672C97.1774 21.672 97.7001 21.4587 98.1054 21.032C98.5214 20.5947 98.7294 20.0133 98.7294 19.288C98.7294 18.5627 98.5214 17.9867 98.1054 17.56C97.7001 17.1227 97.1774 16.904 96.5374 16.904C95.8974 16.904 95.3694 17.1227 94.9534 17.56C94.5374 17.9867 94.3294 18.5627 94.3294 19.288C94.3294 20.0133 94.5374 20.5947 94.9534 21.032C95.3694 21.4587 95.8974 21.672 96.5374 21.672Z" fill="#333333"></path>
  <path d="M104.206 14.984H106.702V23.592H104.206V14.984ZM105.454 13.784C104.995 13.784 104.622 13.6507 104.334 13.384C104.046 13.1173 103.902 12.7867 103.902 12.392C103.902 11.9973 104.046 11.6667 104.334 11.4C104.622 11.1333 104.995 11 105.454 11C105.912 11 106.286 11.128 106.574 11.384C106.862 11.64 107.006 11.96 107.006 12.344C107.006 12.76 106.862 13.1067 106.574 13.384C106.286 13.6507 105.912 13.784 105.454 13.784Z" fill="#333333"></path>
  <path d="M119.066 11.72V23.592H116.682V22.6C116.064 23.3467 115.168 23.72 113.994 23.72C113.184 23.72 112.448 23.5387 111.786 23.176C111.136 22.8133 110.624 22.296 110.25 21.624C109.877 20.952 109.69 20.1733 109.69 19.288C109.69 18.4027 109.877 17.624 110.25 16.952C110.624 16.28 111.136 15.7627 111.786 15.4C112.448 15.0373 113.184 14.856 113.994 14.856C115.093 14.856 115.952 15.2027 116.57 15.896V11.72H119.066ZM114.426 21.672C115.056 21.672 115.578 21.4587 115.994 21.032C116.41 20.5947 116.618 20.0133 116.618 19.288C116.618 18.5627 116.41 17.9867 115.994 17.56C115.578 17.1227 115.056 16.904 114.426 16.904C113.786 16.904 113.258 17.1227 112.842 17.56C112.426 17.9867 112.218 18.5627 112.218 19.288C112.218 20.0133 112.426 20.5947 112.842 21.032C113.258 21.4587 113.786 21.672 114.426 21.672Z" fill="#333333"></path>
  <path d="M130.496 21.48V23.592H122.032V21.912L126.352 17.832C126.811 17.3947 127.12 17.0213 127.28 16.712C127.44 16.392 127.52 16.0773 127.52 15.768C127.52 15.32 127.366 14.9787 127.056 14.744C126.758 14.4987 126.315 14.376 125.728 14.376C125.238 14.376 124.795 14.472 124.4 14.664C124.006 14.8453 123.675 15.1227 123.408 15.496L121.52 14.28C121.958 13.6293 122.56 13.1227 123.328 12.76C124.096 12.3867 124.976 12.2 125.968 12.2C126.8 12.2 127.526 12.3387 128.144 12.616C128.774 12.8827 129.259 13.2667 129.6 13.768C129.952 14.2587 130.128 14.84 130.128 15.512C130.128 16.12 130 16.6907 129.744 17.224C129.488 17.7573 128.992 18.3653 128.256 19.048L125.68 21.48H130.496Z" fill="#333333"></path>
  <path fill-rule="evenodd" clip-rule="evenodd" d="M137 2H17C8.71573 2 2 8.71573 2 17C2 25.2843 8.71573 32 17 32H137C145.284 32 152 25.2843 152 17C152 8.71573 145.284 2 137 2ZM17 0C7.61116 0 0 7.61116 0 17C0 26.3888 7.61116 34 17 34H137C146.389 34 154 26.3888 154 17C154 7.61116 146.389 0 137 0H17Z" fill="#333333"></path>
</svg>
